<?xml version="1.0" encoding="UTF-8" standalone="no"?>
<svg
   xmlns:dc="http://purl.org/dc/elements/1.1/"
   xmlns:cc="http://creativecommons.org/ns#"
   xmlns:rdf="http://www.w3.org/1999/02/22-rdf-syntax-ns#"
   xmlns:svg="http://www.w3.org/2000/svg"
   xmlns="http://www.w3.org/2000/svg"
   viewBox="0 0 666.66669 666.66669"
   height="200"
   width="200"
   xml:space="preserve"
   id="svg2"
   version="1.1"><metadata
     id="metadata8"><rdf:RDF><cc:Work
         rdf:about=""><dc:format>image/svg+xml</dc:format><dc:type
           rdf:resource="http://purl.org/dc/dcmitype/StillImage" /></cc:Work></rdf:RDF></metadata><defs
     id="defs6"><clipPath
       id="clipPath18"
       clipPathUnits="userSpaceOnUse"><path
         id="path16"
         d="M 0,0 H 500 V 500 H 0 Z" /></clipPath><linearGradient
       id="linearGradient30"
       spreadMethod="pad"
       gradientTransform="matrix(3.8571427,-488.57141,-488.57141,-3.8571427,248.09463,491.34698)"
       gradientUnits="userSpaceOnUse"
       y2="0"
       x2="1"
       y1="0"
       x1="0"><stop
         id="stop24"
         offset="0"
         style="stop-opacity:1;stop-color:#3c2157" /><stop
         id="stop26"
         offset="0.79908746"
         style="stop-opacity:1;stop-color:#3c2157" /><stop
         id="stop28"
         offset="1"
         style="stop-opacity:1;stop-color:#e59eff" /></linearGradient><clipPath
       id="clipPath40"
       clipPathUnits="userSpaceOnUse"><path
         id="path38"
         d="M 0,32.579 V 0 H 500 V 32.579 C 405.18,52.246 318.039,58.799 243.959,58.798 v 0 C 95.826,58.795 0,32.579 0,32.579" /></clipPath><linearGradient
       id="linearGradient52"
       spreadMethod="pad"
       gradientTransform="matrix(-7.7142859,109.28572,109.28572,7.7142859,252.75313,-22.713224)"
       gradientUnits="userSpaceOnUse"
       y2="0"
       x2="1"
       y1="0"
       x1="0"><stop
         id="stop46"
         offset="0"
         style="stop-opacity:1;stop-color:#3c2157" /><stop
         id="stop48"
         offset="0.42464918"
         style="stop-opacity:1;stop-color:#3c2157" /><stop
         id="stop50"
         offset="1"
         style="stop-opacity:1;stop-color:#e59eff" /></linearGradient><clipPath
       id="clipPath62"
       clipPathUnits="userSpaceOnUse"><path
         id="path60"
         d="M 19.608,404.48 C 9.814,402.952 2.021,395 1.469,385.104 v 0 C 1.322,382.468 1.742,380 3.124,378.106 v 0 c 8.663,-11.877 29.802,-15.355 48.672,-15.883 v 0 c 18.87,-0.529 39.138,0.462 54.921,-6.595 v 0 c 1.607,-0.718 3.272,-1.657 3.536,-3.026 v 0 c 0.311,-1.619 -1.448,-3.098 -3.158,-4.236 v 0 C 86.294,334.519 55.102,332.428 32.833,319.848 v 0 c -2.538,-1.433 -5.18,-3.405 -4.806,-5.655 v 0 c 0.471,-2.83 5.157,-3.914 9.047,-4.369 v 0 c 43.836,-5.115 88.932,-3.825 133.676,-2.522 v 0 c 63.867,1.862 127.734,3.724 191.602,5.585 v 0 c 9.813,0.286 23.413,3.737 21.488,10.619 v 0 c -1.202,4.293 -8.125,5.999 -14.041,6.951 v 0 c -30.214,4.867 -60.783,8.756 -91.589,11.652 v 0 c -10.358,0.974 -21.11,1.926 -29.821,5.902 v 0 c -8.71,3.975 -14.752,11.939 -11.136,19.17 v 0 c 1.97,3.939 6.462,7.13 8.075,11.144 v 0 c 2.162,5.379 -1.497,11.111 -7.193,14.648 v 0 c -5.697,3.537 -13.022,5.783 -20.385,6.834 v 0 c -41.762,5.961 -82.344,10.263 -122.805,10.263 v 0 c -25.076,-10e-4 -50.113,-1.654 -75.337,-5.59" /></clipPath><linearGradient
       id="linearGradient74"
       spreadMethod="pad"
       gradientTransform="matrix(1.2857144,-551.57141,-551.57141,-1.2857144,192.5793,418.88632)"
       gradientUnits="userSpaceOnUse"
       y2="0"
       x2="1"
       y1="0"
       x1="0"><stop
         id="stop68"
         offset="0"
         style="stop-opacity:1;stop-color:#3c2157" /><stop
         id="stop70"
         offset="0.42464918"
         style="stop-opacity:1;stop-color:#3c2157" /><stop
         id="stop72"
         offset="1"
         style="stop-opacity:1;stop-color:#e59eff" /></linearGradient><clipPath
       id="clipPath96"
       clipPathUnits="userSpaceOnUse"><path
         id="path94"
         d="m 241.828,445.735 c -12.084,0 -21.881,-9.796 -21.881,-21.881 v 0 c 0,-5.305 1.889,-10.167 5.029,-13.954 v 0 h -35.438 c -12.084,0 -21.881,-9.797 -21.881,-21.881 v 0 c 0,-12.085 9.797,-21.882 21.881,-21.882 v 0 h 61.686 c -1.722,-3.127 -2.705,-6.719 -2.705,-10.542 v 0 c 0,-12.084 9.796,-21.881 21.881,-21.881 v 0 h 128.205 c 12.085,0 21.88,9.797 21.88,21.881 v 0 c 0,12.085 -9.795,21.881 -21.88,21.881 v 0 h -40.151 c -5.724,0 -10.235,4.704 -10.206,10.428 v 0 c 0.001,0.038 0.001,0.076 0.001,0.115 v 0 c 0,0.052 0,0.105 -0.001,0.158 v 0 c -0.053,7.572 5.919,13.796 13.49,13.796 v 0 h 51.961 c 12.084,0 21.881,9.797 21.881,21.881 v 0 c 0,12.085 -9.797,21.881 -21.881,21.881 v 0 z" /></clipPath><linearGradient
       id="linearGradient108"
       spreadMethod="pad"
       gradientTransform="matrix(-48.857143,-360,-360,48.857143,315.35043,507.11975)"
       gradientUnits="userSpaceOnUse"
       y2="0"
       x2="1"
       y1="0"
       x1="0"><stop
         id="stop102"
         offset="0"
         style="stop-opacity:1;stop-color:#3c2157" /><stop
         id="stop104"
         offset="0.42464918"
         style="stop-opacity:1;stop-color:#3c2157" /><stop
         id="stop106"
         offset="1"
         style="stop-opacity:1;stop-color:#e59eff" /></linearGradient><clipPath
       id="clipPath118"
       clipPathUnits="userSpaceOnUse"><path
         id="path116"
         d="m 339.226,165.055 c -8.927,0 -16.165,-7.237 -16.165,-16.165 v 0 c 0,-3.919 1.395,-7.511 3.715,-10.31 v 0 h -26.181 c -8.927,0 -16.164,-7.238 -16.164,-16.165 v 0 c 0,-8.928 7.237,-16.165 16.164,-16.165 v 0 h 45.573 c -1.273,-2.311 -1.999,-4.965 -1.999,-7.789 v 0 c 0,-8.928 7.238,-16.165 16.166,-16.165 v 0 h 94.714 c 8.928,0 16.165,7.237 16.165,16.165 v 0 c 0,8.929 -7.237,16.166 -16.165,16.166 v 0 h -29.662 c -4.228,0 -7.562,3.475 -7.539,7.703 v 0 0.085 c 0,0.039 0,0.079 -0.001,0.117 v 0 c -0.039,5.594 4.373,10.193 9.966,10.193 v 0 H 466.2 c 8.928,0 16.165,7.237 16.165,16.165 v 0 c 0,8.928 -7.237,16.165 -16.165,16.165 v 0 z" /></clipPath><linearGradient
       id="linearGradient130"
       spreadMethod="pad"
       gradientTransform="matrix(-3.8571432,-221.14287,-221.14287,3.8571432,385.46674,254.26346)"
       gradientUnits="userSpaceOnUse"
       y2="0"
       x2="1"
       y1="0"
       x1="0"><stop
         id="stop124"
         offset="0"
         style="stop-opacity:1;stop-color:#3c2157" /><stop
         id="stop126"
         offset="0.42464918"
         style="stop-opacity:1;stop-color:#3c2157" /><stop
         id="stop128"
         offset="1"
         style="stop-opacity:1;stop-color:#e59eff" /></linearGradient><clipPath
       id="clipPath140"
       clipPathUnits="userSpaceOnUse"><path
         id="path138"
         d="M 0,500 H 500 V 0 H 0 Z" /></clipPath><clipPath
       id="clipPath232"
       clipPathUnits="userSpaceOnUse"><path
         id="path230"
         d="m 55.36,268.437 c -13.066,0 -23.658,-10.592 -23.658,-23.659 v 0 c 0,-13.065 10.592,-23.658 23.658,-23.658 v 0 H 86.715 C 78.571,217.382 72.912,209.161 72.912,199.614 v 0 c 0,-13.067 10.592,-23.659 23.658,-23.659 v 0 h 142.072 c 13.066,0 23.658,10.592 23.658,23.659 v 0 c 0,13.066 -10.592,23.657 -23.658,23.657 v 0 h -31.356 c 8.144,3.739 13.803,11.959 13.803,21.507 v 0 c 0,13.067 -10.592,23.659 -23.658,23.659 v 0 z" /></clipPath><linearGradient
       id="linearGradient244"
       spreadMethod="pad"
       gradientTransform="matrix(-39.496693,-291.02826,-291.02826,39.496693,159.2574,312.50696)"
       gradientUnits="userSpaceOnUse"
       y2="0"
       x2="1"
       y1="0"
       x1="0"><stop
         id="stop238"
         offset="0"
         style="stop-opacity:1;stop-color:#3c2157" /><stop
         id="stop240"
         offset="0.42464918"
         style="stop-opacity:1;stop-color:#3c2157" /><stop
         id="stop242"
         offset="1"
         style="stop-opacity:1;stop-color:#e59eff" /></linearGradient><clipPath
       id="clipPath254"
       clipPathUnits="userSpaceOnUse"><path
         id="path252"
         d="m 269.577,383.208 c -6.234,-11.423 -14.093,-10.276 -22.981,-9.13 v 0 c -7.256,0.936 -15.199,1.872 -23.502,-4.032 v 0 c 0,0 -7.746,-7.817 -9.535,-17.07 v 0 h 42.311 172.82 c 0,0 -5.961,29.511 -43.504,17.07 v 0 c -37.543,-12.443 -33.372,22.949 -57.209,33.358 v 0 c -6.535,2.854 -13.028,4.185 -19.24,4.185 v 0 c -16.447,10e-4 -30.942,-9.321 -39.16,-24.381" /></clipPath><linearGradient
       id="linearGradient266"
       spreadMethod="pad"
       gradientTransform="matrix(-25.168276,-185.45045,-185.45045,25.168276,331.51556,429.54391)"
       gradientUnits="userSpaceOnUse"
       y2="0"
       x2="1"
       y1="0"
       x1="0"><stop
         id="stop260"
         offset="0"
         style="stop-opacity:1;stop-color:#cb81ba" /><stop
         id="stop262"
         offset="0.42464918"
         style="stop-opacity:1;stop-color:#cb81ba" /><stop
         id="stop264"
         offset="1"
         style="stop-opacity:1;stop-color:#cb7dbc" /></linearGradient><clipPath
       id="clipPath276"
       clipPathUnits="userSpaceOnUse"><path
         id="path274"
         d="M 293.408,161.359 C 272.621,152.167 276.259,120.912 243.519,131.9 v 0 c -32.739,10.988 -37.935,-15.073 -37.935,-15.073 v 0 h 150.704 36.897 c -1.56,8.171 -8.316,15.073 -8.316,15.073 v 0 c -7.242,5.214 -14.167,4.388 -20.495,3.562 v 0 c -7.75,-1.013 -14.603,-2.024 -20.039,8.063 v 0 c -7.167,13.298 -19.807,21.53 -34.149,21.53 v 0 c -5.417,-0.001 -11.079,-1.175 -16.778,-3.696" /></clipPath><linearGradient
       id="linearGradient288"
       spreadMethod="pad"
       gradientTransform="matrix(21.947641,-163.77078,161.71945,22.226034,290.32245,184.44319)"
       gradientUnits="userSpaceOnUse"
       y2="0"
       x2="1"
       y1="0"
       x1="0"><stop
         id="stop282"
         offset="0"
         style="stop-opacity:1;stop-color:#cb81ba" /><stop
         id="stop284"
         offset="0.42464918"
         style="stop-opacity:1;stop-color:#cb81ba" /><stop
         id="stop286"
         offset="1"
         style="stop-opacity:1;stop-color:#cb7dbc" /></linearGradient><clipPath
       id="clipPath298"
       clipPathUnits="userSpaceOnUse"><path
         id="path296"
         d="m 149.458,273.154 c -17.844,-9.92 -14.735,-20.785 -36.289,-8.289 v 0 c -24.629,14.278 -49.56,4.677 -61.949,-9.169 v 0 c -9.987,-11.161 -9.881,-26.035 -9.881,-26.035 v 0 h 169.098 42.226 c -1.512,7.98 -7.937,16.073 -12.89,18.956 v 0 c -7.909,4.602 -14.714,2.157 -20.228,-0.287 v 0 c -6.952,-3.082 -11.852,-6.164 -14.322,4.882 v 0 c -2.721,12.166 -20.934,24.11 -38.9,24.11 v 0 c -5.827,0 -11.628,-1.256 -16.865,-4.168" /></clipPath><linearGradient
       id="linearGradient310"
       spreadMethod="pad"
       gradientTransform="matrix(23.806784,-178.90179,175.4184,24.27953,137.24263,302.99252)"
       gradientUnits="userSpaceOnUse"
       y2="0"
       x2="1"
       y1="0"
       x1="0"><stop
         id="stop304"
         offset="0"
         style="stop-opacity:1;stop-color:#cb81ba" /><stop
         id="stop306"
         offset="0.42464918"
         style="stop-opacity:1;stop-color:#cb81ba" /><stop
         id="stop308"
         offset="1"
         style="stop-opacity:1;stop-color:#cb7dbc" /></linearGradient><clipPath
       id="clipPath320"
       clipPathUnits="userSpaceOnUse"><path
         id="path318"
         d="M 0,500 H 500 V 0 H 0 Z" /></clipPath></defs><g
     transform="matrix(1.3333333,0,0,-1.3333333,0,666.66667)"
     id="g10"><g
       id="g12"><g
         clip-path="url(#clipPath18)"
         id="g14"><g
           id="g20"><g
             id="g22"><path
               id="path32"
               style="fill:url(#linearGradient30);stroke:none"
               d="M 0,0 H 500 V 500 H 0 Z" /></g></g></g></g><g
       id="g34"><g
         clip-path="url(#clipPath40)"
         id="g36"><g
           id="g42"><g
             id="g44"><path
               id="path54"
               style="fill:url(#linearGradient52);stroke:none"
               d="M 0,32.579 V 0 H 500 V 32.579 C 405.18,52.246 318.039,58.799 243.959,58.798 v 0 C 95.826,58.795 0,32.579 0,32.579" /></g></g></g></g><g
       id="g56"><g
         clip-path="url(#clipPath62)"
         id="g58"><g
           id="g64"><g
             id="g66"><path
               id="path76"
               style="fill:url(#linearGradient74);stroke:none"
               d="M 19.608,404.48 C 9.814,402.952 2.021,395 1.469,385.104 v 0 C 1.322,382.468 1.742,380 3.124,378.106 v 0 c 8.663,-11.877 29.802,-15.355 48.672,-15.883 v 0 c 18.87,-0.529 39.138,0.462 54.921,-6.595 v 0 c 1.607,-0.718 3.272,-1.657 3.536,-3.026 v 0 c 0.311,-1.619 -1.448,-3.098 -3.158,-4.236 v 0 C 86.294,334.519 55.102,332.428 32.833,319.848 v 0 c -2.538,-1.433 -5.18,-3.405 -4.806,-5.655 v 0 c 0.471,-2.83 5.157,-3.914 9.047,-4.369 v 0 c 43.836,-5.115 88.932,-3.825 133.676,-2.522 v 0 c 63.867,1.862 127.734,3.724 191.602,5.585 v 0 c 9.813,0.286 23.413,3.737 21.488,10.619 v 0 c -1.202,4.293 -8.125,5.999 -14.041,6.951 v 0 c -30.214,4.867 -60.783,8.756 -91.589,11.652 v 0 c -10.358,0.974 -21.11,1.926 -29.821,5.902 v 0 c -8.71,3.975 -14.752,11.939 -11.136,19.17 v 0 c 1.97,3.939 6.462,7.13 8.075,11.144 v 0 c 2.162,5.379 -1.497,11.111 -7.193,14.648 v 0 c -5.697,3.537 -13.022,5.783 -20.385,6.834 v 0 c -41.762,5.961 -82.344,10.263 -122.805,10.263 v 0 c -25.076,-10e-4 -50.113,-1.654 -75.337,-5.59" /></g></g></g></g><g
       transform="translate(47.1431,207.3271)"
       id="g78"><path
         id="path80"
         style="fill:#6d35a1;fill-opacity:1;fill-rule:nonzero;stroke:none"
         d="M 0,0 243.295,-3.856 -45.322,-7.714 V 0 Z" /></g><g
       transform="translate(219.7665,119.1681)"
       id="g82"><path
         id="path84"
         style="fill:#9245ba;fill-opacity:1;fill-rule:nonzero;stroke:none"
         d="m 0,0 236.228,-4.507 h 44.006 v 9.015 z" /></g><g
       transform="translate(219.7665,287.7723)"
       id="g86"><path
         id="path88"
         style="fill:#412563;fill-opacity:1;fill-rule:nonzero;stroke:none"
         d="m 0,0 236.228,-4.506 h 44.006 v 9.013 z" /></g><g
       id="g90"><g
         clip-path="url(#clipPath96)"
         id="g92"><g
           id="g98"><g
             id="g100"><path
               id="path110"
               style="fill:url(#linearGradient108);stroke:none"
               d="m 241.828,445.735 c -12.084,0 -21.881,-9.796 -21.881,-21.881 v 0 c 0,-5.305 1.889,-10.167 5.029,-13.954 v 0 h -35.438 c -12.084,0 -21.881,-9.797 -21.881,-21.881 v 0 c 0,-12.085 9.797,-21.882 21.881,-21.882 v 0 h 61.686 c -1.722,-3.127 -2.705,-6.719 -2.705,-10.542 v 0 c 0,-12.084 9.796,-21.881 21.881,-21.881 v 0 h 128.205 c 12.085,0 21.88,9.797 21.88,21.881 v 0 c 0,12.085 -9.795,21.881 -21.88,21.881 v 0 h -40.151 c -5.724,0 -10.235,4.704 -10.206,10.428 v 0 c 0.001,0.038 0.001,0.076 0.001,0.115 v 0 c 0,0.052 0,0.105 -0.001,0.158 v 0 c -0.053,7.572 5.919,13.796 13.49,13.796 v 0 h 51.961 c 12.084,0 21.881,9.797 21.881,21.881 v 0 c 0,12.085 -9.797,21.881 -21.881,21.881 v 0 z" /></g></g></g></g><g
       id="g112"><g
         clip-path="url(#clipPath118)"
         id="g114"><g
           id="g120"><g
             id="g122"><path
               id="path132"
               style="fill:url(#linearGradient130);stroke:none"
               d="m 339.226,165.055 c -8.927,0 -16.165,-7.237 -16.165,-16.165 v 0 c 0,-3.919 1.395,-7.511 3.715,-10.31 v 0 h -26.181 c -8.927,0 -16.164,-7.238 -16.164,-16.165 v 0 c 0,-8.928 7.237,-16.165 16.164,-16.165 v 0 h 45.573 c -1.273,-2.311 -1.999,-4.965 -1.999,-7.789 v 0 c 0,-8.928 7.238,-16.165 16.166,-16.165 v 0 h 94.714 c 8.928,0 16.165,7.237 16.165,16.165 v 0 c 0,8.929 -7.237,16.166 -16.165,16.166 v 0 h -29.662 c -4.228,0 -7.562,3.475 -7.539,7.703 v 0 0.085 c 0,0.039 0,0.079 -0.001,0.117 v 0 c -0.039,5.594 4.373,10.193 9.966,10.193 v 0 H 466.2 c 8.928,0 16.165,7.237 16.165,16.165 v 0 c 0,8.928 -7.237,16.165 -16.165,16.165 v 0 z" /></g></g></g></g><g
       id="g134"><g
         clip-path="url(#clipPath140)"
         id="g136"><g
           transform="translate(65.4395,461.6704)"
           id="g142"><path
             id="path144"
             style="fill:#b16eff;fill-opacity:1;fill-rule:nonzero;stroke:none"
             d="M 0,0 1.003,-6.47 7.473,-7.473 1.003,-8.476 0,-14.945 l -1.003,6.469 -6.47,1.003 6.47,1.003 z" /></g><g
           transform="translate(115.646,165.2969)"
           id="g146"><path
             id="path148"
             style="fill:#b16eff;fill-opacity:1;fill-rule:nonzero;stroke:none"
             d="M 0,0 1.003,-6.469 7.473,-7.473 1.003,-8.476 0,-14.945 l -1.003,6.469 -6.47,1.003 6.47,1.004 z" /></g><g
           transform="translate(100.7012,268.437)"
           id="g150"><path
             id="path152"
             style="fill:#b16eff;fill-opacity:1;fill-rule:nonzero;stroke:none"
             d="M 0,0 1.003,-6.47 7.472,-7.473 1.003,-8.476 0,-14.945 l -1.003,6.469 -6.47,1.003 6.47,1.003 z" /></g><g
           transform="translate(100.7012,380.2827)"
           id="g154"><path
             id="path156"
             style="fill:#b16eff;fill-opacity:1;fill-rule:nonzero;stroke:none"
             d="M 0,0 1.003,-6.469 7.472,-7.473 1.003,-8.476 0,-14.945 l -1.003,6.469 -6.47,1.003 6.47,1.004 z" /></g><g
           transform="translate(375.9258,418.9043)"
           id="g158"><path
             id="path160"
             style="fill:#b16eff;fill-opacity:1;fill-rule:nonzero;stroke:none"
             d="M 0,0 1.003,-6.469 7.473,-7.473 1.003,-8.476 0,-14.945 l -1.004,6.469 -6.469,1.003 6.469,1.004 z" /></g><g
           transform="translate(411.6035,202.7354)"
           id="g162"><path
             id="path164"
             style="fill:#b16eff;fill-opacity:1;fill-rule:nonzero;stroke:none"
             d="M 0,0 1.004,-6.47 7.473,-7.473 1.004,-8.477 0,-14.945 l -1.003,6.468 -6.469,1.004 6.469,1.003 z" /></g><g
           transform="translate(313.0674,272.2939)"
           id="g166"><path
             id="path168"
             style="fill:#b16eff;fill-opacity:1;fill-rule:nonzero;stroke:none"
             d="M 0,0 1.003,-6.469 7.473,-7.473 1.003,-8.476 0,-14.945 l -1.003,6.469 -6.47,1.003 6.47,1.004 z" /></g><g
           transform="translate(298.0625,467.7002)"
           id="g170"><path
             id="path172"
             style="fill:#b16eff;fill-opacity:1;fill-rule:nonzero;stroke:none"
             d="M 0,0 0.809,-5.22 6.029,-6.03 0.809,-6.839 0,-12.06 l -0.81,5.221 -5.22,0.809 5.22,0.81 z" /></g><g
           transform="translate(452.2979,487.9399)"
           id="g174"><path
             id="path176"
             style="fill:#b16eff;fill-opacity:1;fill-rule:nonzero;stroke:none"
             d="M 0,0 0.81,-5.221 6.03,-6.03 0.81,-6.84 0,-12.06 l -0.81,5.22 -5.22,0.81 5.22,0.809 z" /></g><g
           transform="translate(432.0479,280.1152)"
           id="g178"><path
             id="path180"
             style="fill:#b16eff;fill-opacity:1;fill-rule:nonzero;stroke:none"
             d="M 0,0 0.387,-2.493 2.88,-2.88 0.387,-3.267 0,-5.76 l -0.387,2.493 -2.493,0.387 2.493,0.387 z" /></g><g
           transform="translate(478.1787,178.9746)"
           id="g182"><path
             id="path184"
             style="fill:#b16eff;fill-opacity:1;fill-rule:nonzero;stroke:none"
             d="M 0,0 0.387,-2.493 2.88,-2.88 0.387,-3.267 0,-5.761 l -0.387,2.494 -2.493,0.387 2.493,0.387 z" /></g><g
           transform="translate(197.4268,457.0776)"
           id="g186"><path
             id="path188"
             style="fill:#b16eff;fill-opacity:1;fill-rule:nonzero;stroke:none"
             d="M 0,0 0.387,-2.493 2.88,-2.88 0.387,-3.267 0,-5.76 l -0.387,2.493 -2.493,0.387 2.493,0.387 z" /></g><g
           transform="translate(446.2676,421.7842)"
           id="g190"><path
             id="path192"
             style="fill:#b16eff;fill-opacity:1;fill-rule:nonzero;stroke:none"
             d="M 0,0 0.387,-2.493 2.88,-2.88 0.387,-3.267 0,-5.76 l -0.387,2.493 -2.493,0.387 2.493,0.387 z" /></g><g
           transform="translate(317.6123,99.666)"
           id="g194"><path
             id="path196"
             style="fill:#b16eff;fill-opacity:1;fill-rule:nonzero;stroke:none"
             d="M 0,0 0.387,-2.494 2.88,-2.881 0.387,-3.267 0,-5.761 l -0.387,2.494 -2.493,0.386 2.493,0.387 z" /></g><g
           transform="translate(292.0254,378.5703)"
           id="g198"><path
             id="path200"
             style="fill:#b16eff;fill-opacity:1;fill-rule:nonzero;stroke:none"
             d="M 0,0 0.387,-2.493 2.881,-2.88 0.387,-3.267 0,-5.76 l -0.387,2.493 -2.493,0.387 2.493,0.387 z" /></g><g
           transform="translate(296.5039,150.3516)"
           id="g202"><path
             id="path204"
             style="fill:#b16eff;fill-opacity:1;fill-rule:nonzero;stroke:none"
             d="M 0,0 0.387,-2.493 2.88,-2.88 0.387,-3.267 0,-5.76 l -0.387,2.493 -2.493,0.387 2.493,0.387 z" /></g><g
           transform="translate(65.4395,290.6528)"
           id="g206"><path
             id="path208"
             style="fill:#b16eff;fill-opacity:1;fill-rule:nonzero;stroke:none"
             d="M 0,0 0.387,-2.494 2.88,-2.88 0.387,-3.267 0,-5.76 l -0.387,2.493 -2.493,0.387 2.493,0.386 z" /></g><g
           transform="translate(28.8213,206.3506)"
           id="g210"><path
             id="path212"
             style="fill:#b16eff;fill-opacity:1;fill-rule:nonzero;stroke:none"
             d="M 0,0 0.387,-2.493 2.88,-2.88 0.387,-3.267 0,-5.76 l -0.387,2.493 -2.493,0.387 2.493,0.387 z" /></g><g
           transform="translate(194.6069,389.7246)"
           id="g214"><path
             id="path216"
             style="fill:#b16eff;fill-opacity:1;fill-rule:nonzero;stroke:none"
             d="M 0,0 1.884,-12.15 14.035,-14.034 1.884,-15.918 0,-28.069 l -1.884,12.151 -12.15,1.884 12.15,1.884 z" /></g><g
           transform="translate(227.813,119.168)"
           id="g218"><path
             id="path220"
             style="fill:#b16eff;fill-opacity:1;fill-rule:nonzero;stroke:none"
             d="m 0,0 1.884,-12.149 12.15,-1.885 -12.15,-1.884 -1.884,-12.15 -1.884,12.15 -12.15,1.884 12.15,1.885 z" /></g><g
           transform="translate(188.0889,227.6816)"
           id="g222"><path
             id="path224"
             style="fill:#b16eff;fill-opacity:1;fill-rule:nonzero;stroke:none"
             d="m 0,0 1.884,-12.149 12.15,-1.885 -12.15,-1.884 -1.884,-12.15 -1.884,12.15 -12.15,1.884 12.15,1.885 z" /></g></g></g><g
       id="g226"><g
         clip-path="url(#clipPath232)"
         id="g228"><g
           id="g234"><g
             id="g236"><path
               id="path246"
               style="fill:url(#linearGradient244);stroke:none"
               d="m 55.36,268.437 c -13.066,0 -23.658,-10.592 -23.658,-23.659 v 0 c 0,-13.065 10.592,-23.658 23.658,-23.658 v 0 H 86.715 C 78.571,217.382 72.912,209.161 72.912,199.614 v 0 c 0,-13.067 10.592,-23.659 23.658,-23.659 v 0 h 142.072 c 13.066,0 23.658,10.592 23.658,23.659 v 0 c 0,13.066 -10.592,23.657 -23.658,23.657 v 0 h -31.356 c 8.144,3.739 13.803,11.959 13.803,21.507 v 0 c 0,13.067 -10.592,23.659 -23.658,23.659 v 0 z" /></g></g></g></g><g
       id="g248"><g
         clip-path="url(#clipPath254)"
         id="g250"><g
           id="g256"><g
             id="g258"><path
               id="path268"
               style="fill:url(#linearGradient266);stroke:none"
               d="m 269.577,383.208 c -6.234,-11.423 -14.093,-10.276 -22.981,-9.13 v 0 c -7.256,0.936 -15.199,1.872 -23.502,-4.032 v 0 c 0,0 -7.746,-7.817 -9.535,-17.07 v 0 h 42.311 172.82 c 0,0 -5.961,29.511 -43.504,17.07 v 0 c -37.543,-12.443 -33.372,22.949 -57.209,33.358 v 0 c -6.535,2.854 -13.028,4.185 -19.24,4.185 v 0 c -16.447,10e-4 -30.942,-9.321 -39.16,-24.381" /></g></g></g></g><g
       id="g270"><g
         clip-path="url(#clipPath276)"
         id="g272"><g
           id="g278"><g
             id="g280"><path
               id="path290"
               style="fill:url(#linearGradient288);stroke:none"
               d="M 293.408,161.359 C 272.621,152.167 276.259,120.912 243.519,131.9 v 0 c -32.739,10.988 -37.935,-15.073 -37.935,-15.073 v 0 h 150.704 36.897 c -1.56,8.171 -8.316,15.073 -8.316,15.073 v 0 c -7.242,5.214 -14.167,4.388 -20.495,3.562 v 0 c -7.75,-1.013 -14.603,-2.024 -20.039,8.063 v 0 c -7.167,13.298 -19.807,21.53 -34.149,21.53 v 0 c -5.417,-0.001 -11.079,-1.175 -16.778,-3.696" /></g></g></g></g><g
       id="g292"><g
         clip-path="url(#clipPath298)"
         id="g294"><g
           id="g300"><g
             id="g302"><path
               id="path312"
               style="fill:url(#linearGradient310);stroke:none"
               d="m 149.458,273.154 c -17.844,-9.92 -14.735,-20.785 -36.289,-8.289 v 0 c -24.629,14.278 -49.56,4.677 -61.949,-9.169 v 0 c -9.987,-11.161 -9.881,-26.035 -9.881,-26.035 v 0 h 169.098 42.226 c -1.512,7.98 -7.937,16.073 -12.89,18.956 v 0 c -7.909,4.602 -14.714,2.157 -20.228,-0.287 v 0 c -6.952,-3.082 -11.852,-6.164 -14.322,4.882 v 0 c -2.721,12.166 -20.934,24.11 -38.9,24.11 v 0 c -5.827,0 -11.628,-1.256 -16.865,-4.168" /></g></g></g></g><g
       id="g314"><g
         clip-path="url(#clipPath320)"
         id="g316"><g
           transform="translate(260.1035,34.5342)"
           id="g322"><path
             id="path324"
             style="fill:#f9fbfc;fill-opacity:1;fill-rule:nonzero;stroke:none"
             d="m 0,0 c -0.432,-0.442 -0.803,-0.931 -1.108,-1.453 l -0.465,0.241 c -0.067,0.298 -0.349,0.503 -0.658,0.467 -0.332,-0.039 -0.569,-0.339 -0.53,-0.67 0.039,-0.331 0.339,-0.568 0.67,-0.529 0.066,0.007 0.127,0.026 0.184,0.052 l 0.451,-0.234 C -1.707,-2.68 -1.889,-3.265 -1.995,-3.87 l 0.746,-0.131 c 0.23,1.306 0.85,2.506 1.792,3.472 z" /></g><g
           transform="translate(265.5918,36.8369)"
           id="g326"><path
             id="path328"
             style="fill:#f9fbfc;fill-opacity:1;fill-rule:nonzero;stroke:none"
             d="m 0,0 c -0.171,0 -0.341,-0.007 -0.51,-0.018 l -0.073,0.626 c 0.187,0.15 0.296,0.39 0.266,0.645 C -0.364,1.646 -0.72,1.928 -1.113,1.882 -1.506,1.835 -1.787,1.479 -1.741,1.086 -1.711,0.832 -1.552,0.625 -1.336,0.522 l 0.073,-0.624 c -0.714,-0.116 -1.403,-0.332 -2.059,-0.646 l 0.327,-0.684 c 0.933,0.448 1.941,0.673 2.995,0.673 0.496,0 0.993,-0.053 1.475,-0.157 l 0.161,0.741 C 1.101,-0.06 0.551,0 0,0" /></g><g
           transform="translate(272.1943,34.2891)"
           id="g330"><path
             id="path332"
             style="fill:#f9fbfc;fill-opacity:1;fill-rule:nonzero;stroke:none"
             d="M 0,0 C 0.331,0.041 0.566,0.342 0.525,0.673 0.484,1.004 0.184,1.238 -0.146,1.198 -0.456,1.16 -0.683,0.895 -0.677,0.59 L -1.093,0.227 c -0.418,0.429 -0.889,0.812 -1.408,1.138 l -0.403,-0.64 c 1.133,-0.715 2.02,-1.727 2.563,-2.926 l 0.691,0.312 c -0.251,0.555 -0.568,1.073 -0.943,1.545 L -0.19,0.008 C -0.13,-0.005 -0.065,-0.008 0,0" /></g><g
           transform="translate(265.0439,26.6279)"
           id="g334"><path
             id="path336"
             style="fill:#f9fbfc;fill-opacity:1;fill-rule:nonzero;stroke:none"
             d="m 0,0 c -0.386,-0.023 -0.774,-0.034 -1.157,-0.034 -0.88,0 -1.733,0.06 -2.478,0.179 -0.39,0.062 -0.846,0.155 -1.27,0.292 1.046,-1.861 3.069,-3.125 5.387,-3.125 2.856,0 5.263,1.916 5.951,4.503 C 5.751,1.366 4.927,0.99 3.974,0.692 2.795,0.325 1.42,0.086 0,0" /></g><g
           transform="translate(268.1699,29.7139)"
           id="g338"><path
             id="path340"
             style="fill:#f9fbfc;fill-opacity:1;fill-rule:nonzero;stroke:none"
             d="M 0,0 C -0.75,0 -1.36,0.61 -1.36,1.36 -1.36,2.11 -0.75,2.721 0,2.721 0.75,2.721 1.36,2.11 1.36,1.36 1.36,0.61 0.75,0 0,0 m -4.737,-0.908 c -1.021,0 -1.85,0.83 -1.85,1.849 0,1.021 0.829,1.85 1.85,1.85 1.019,0 1.849,-0.829 1.849,-1.85 0,-1.019 -0.83,-1.849 -1.849,-1.849 m 2.159,6.514 c -3.353,0 -6.08,-2.666 -6.08,-5.943 0,-0.426 0.047,-0.849 0.137,-1.262 0.674,-0.482 2.707,-0.889 5.348,-0.73 2.879,0.173 5.297,0.957 6.672,2.158 C 3.493,0.024 3.479,0.22 3.454,0.411 3.073,3.373 0.48,5.606 -2.578,5.606" /></g><g
           transform="translate(281.5947,33.4531)"
           id="g342"><path
             id="path344"
             style="fill:#f9fbfc;fill-opacity:1;fill-rule:nonzero;stroke:none"
             d="M 0,0 C -0.294,0.116 -0.805,0.309 -1.382,0.237 -1.933,0.169 -2.226,-0.103 -2.226,-0.77 v -0.865 h 2.228 v -1.718 h -2.228 v -5.454 h -1.931 v 5.454 h -1.34 v 1.718 h 1.34 v 0.888 c 0,1.681 0.895,2.783 2.568,2.783 0.643,0 1.157,-0.122 1.59,-0.308 z" /></g><g
           transform="translate(286.2979,30.1211)"
           id="g346"><path
             id="path348"
             style="fill:#f9fbfc;fill-opacity:1;fill-rule:nonzero;stroke:none"
             d="m 0,0 c -0.177,0.03 -0.357,0.047 -0.526,0.047 -0.896,0 -1.51,-0.548 -1.51,-1.614 v -3.908 h -1.932 v 7.172 h 1.872 V 0.912 c 0.452,0.674 1.141,0.978 2.022,0.978 0.414,0 0.847,-0.128 1.094,-0.337 z" /></g><g
           transform="translate(288.8506,28.9092)"
           id="g350"><path
             id="path352"
             style="fill:#f9fbfc;fill-opacity:1;fill-rule:nonzero;stroke:none"
             d="M 0,0 H 3.175 C 2.998,0.918 2.442,1.436 1.613,1.436 0.703,1.436 0.171,0.889 0,0 m 5.114,-0.666 c 0,-0.222 -0.014,-0.488 -0.037,-0.651 h -5.084 c 0.207,-1.037 0.933,-1.488 1.843,-1.488 0.621,0 1.295,0.251 1.812,0.688 L 4.781,-3.36 c -0.814,-0.747 -1.85,-1.088 -3.056,-1.088 -2.199,0 -3.723,1.495 -3.723,3.753 0,2.257 1.48,3.797 3.626,3.797 2.065,0 3.479,-1.533 3.486,-3.768" /></g><g
           transform="translate(296.5039,28.9092)"
           id="g354"><path
             id="path356"
             style="fill:#f9fbfc;fill-opacity:1;fill-rule:nonzero;stroke:none"
             d="M 0,0 H 3.175 C 2.998,0.918 2.442,1.436 1.613,1.436 0.703,1.436 0.17,0.889 0,0 m 5.114,-0.666 c 0,-0.222 -0.014,-0.488 -0.037,-0.651 h -5.084 c 0.207,-1.037 0.932,-1.488 1.843,-1.488 0.621,0 1.295,0.251 1.813,0.688 L 4.781,-3.36 c -0.814,-0.747 -1.85,-1.088 -3.056,-1.088 -2.199,0 -3.723,1.495 -3.723,3.753 0,2.257 1.48,3.797 3.626,3.797 2.065,0 3.479,-1.533 3.486,-3.768" /></g><g
           transform="translate(304.2871,28.2354)"
           id="g358"><path
             id="path360"
             style="fill:#f9fbfc;fill-opacity:1;fill-rule:nonzero;stroke:none"
             d="m 0,0 c 0,-1.132 0.747,-1.976 1.843,-1.976 1.139,0 1.85,0.881 1.85,1.976 0,1.096 -0.711,1.977 -1.85,1.977 C 0.747,1.977 0,1.133 0,0 m 5.677,0 c 0,-2.153 -1.495,-3.774 -3.471,-3.774 -0.963,0 -1.644,0.378 -2.109,0.932 V -6.55 H -1.828 V 3.583 H 0.06 V 2.791 C 0.525,3.375 1.214,3.775 2.198,3.775 4.182,3.775 5.677,2.154 5.677,0" /></g><path
           id="path362"
           style="fill:#f9fbfc;fill-opacity:1;fill-rule:nonzero;stroke:none"
           d="m 312.809,24.646 h -1.932 v 7.172 h 1.932 z m 0.258,9.518 c 0,-0.695 -0.54,-1.228 -1.236,-1.228 -0.695,0 -1.228,0.533 -1.228,1.228 0,0.696 0.533,1.243 1.228,1.243 0.696,0 1.236,-0.547 1.236,-1.243" /><g
           transform="translate(316.0322,29.2646)"
           id="g364"><path
             id="path366"
             style="fill:#f9fbfc;fill-opacity:1;fill-rule:nonzero;stroke:none"
             d="M 0,0 2.701,2.554 H 5.07 L 1.591,-0.821 5.092,-4.618 H 2.716 L 0,-1.717 V -4.618 H -1.932 V 6.039 H 0 Z" /></g><g
           transform="translate(184.4126,26.6299)"
           id="g368"><path
             id="path370"
             style="fill:#f9fbfc;fill-opacity:1;fill-rule:nonzero;stroke:none"
             d="m 0,0 v 3.208 c -0.396,0.615 -1.245,1.143 -2.124,1.143 -1.421,0 -2.271,-1.172 -2.271,-2.74 0,-1.567 0.85,-2.724 2.271,-2.724 0.879,0 1.728,0.498 2.124,1.113 m 0,-1.919 v 1.055 c -0.527,-0.718 -1.392,-1.231 -2.388,-1.231 -1.845,0 -3.149,1.407 -3.149,3.706 0,2.256 1.289,3.721 3.149,3.721 0.952,0 1.817,-0.469 2.388,-1.245 v 3.765 h 1.099 v -9.771 z" /></g><g
           transform="translate(190.4033,31.0537)"
           id="g372"><path
             id="path374"
             style="fill:#f9fbfc;fill-opacity:1;fill-rule:nonzero;stroke:none"
             d="M 0,0 C -1.509,0 -2.256,-1.274 -2.314,-2.358 H 2.329 C 2.314,-1.304 1.611,0 0,0 m -3.471,-2.798 c 0,2.051 1.464,3.706 3.486,3.706 2.138,0 3.398,-1.67 3.398,-3.794 v -0.278 h -5.727 c 0.087,-1.333 1.025,-2.446 2.548,-2.446 0.806,0 1.626,0.322 2.183,0.893 L 2.944,-5.435 C 2.241,-6.138 1.289,-6.519 0.132,-6.519 c -2.095,0 -3.603,1.509 -3.603,3.721" /></g><g
           transform="translate(194.6069,25.6484)"
           id="g376"><path
             id="path378"
             style="fill:#f9fbfc;fill-opacity:1;fill-rule:nonzero;stroke:none"
             d="M 0,0 0.571,0.791 C 1.04,0.249 1.934,-0.22 2.9,-0.22 c 1.084,0 1.67,0.513 1.67,1.216 0,1.714 -4.38,0.659 -4.38,3.281 0,1.099 0.953,2.036 2.637,2.036 1.201,0 2.051,-0.454 2.622,-1.025 L 4.936,4.526 C 4.512,5.039 3.735,5.42 2.827,5.42 1.86,5.42 1.26,4.937 1.26,4.307 1.26,2.754 5.639,3.779 5.639,1.025 5.639,-0.161 4.687,-1.113 2.856,-1.113 1.699,-1.113 0.718,-0.762 0,0" /></g><path
           id="path380"
           style="fill:#f9fbfc;fill-opacity:1;fill-rule:nonzero;stroke:none"
           d="m 201.667,31.786 h 1.099 v -7.075 h -1.099 z m -0.19,1.743 c 0,0.41 0.337,0.747 0.732,0.747 0.411,0 0.747,-0.337 0.747,-0.747 0,-0.41 -0.336,-0.732 -0.747,-0.732 -0.395,0 -0.732,0.322 -0.732,0.732" /><g
           transform="translate(209.7085,26.7471)"
           id="g382"><path
             id="path384"
             style="fill:#f9fbfc;fill-opacity:1;fill-rule:nonzero;stroke:none"
             d="m 0,0 v 3.091 c -0.381,0.615 -1.23,1.142 -2.109,1.142 -1.421,0 -2.27,-1.128 -2.27,-2.695 0,-1.553 0.849,-2.695 2.27,-2.695 0.879,0 1.728,0.542 2.109,1.157 m -5.126,-3.853 0.556,0.821 c 0.586,-0.703 1.289,-0.967 2.3,-0.967 1.172,0 2.27,0.571 2.27,2.124 v 1.011 c -0.512,-0.718 -1.376,-1.26 -2.373,-1.26 -1.845,0 -3.149,1.377 -3.149,3.662 0,2.271 1.289,3.677 3.149,3.677 0.952,0 1.802,-0.469 2.373,-1.245 v 1.069 h 1.099 v -6.87 c 0,-2.344 -1.641,-3.076 -3.369,-3.076 -1.201,0 -2.022,0.234 -2.856,1.054" /></g><g
           transform="translate(217.4131,24.7109)"
           id="g386"><path
             id="path388"
             style="fill:#f9fbfc;fill-opacity:1;fill-rule:nonzero;stroke:none"
             d="M 0,0 V 4.629 C 0,5.874 -0.629,6.27 -1.582,6.27 -2.446,6.27 -3.267,5.742 -3.676,5.171 V 0 h -1.099 v 7.075 h 1.099 V 6.05 c 0.498,0.586 1.464,1.201 2.519,1.201 1.479,0 2.256,-0.747 2.256,-2.285 L 1.099,0 Z" /></g><g
           transform="translate(223.4043,31.0537)"
           id="g390"><path
             id="path392"
             style="fill:#f9fbfc;fill-opacity:1;fill-rule:nonzero;stroke:none"
             d="M 0,0 C -1.509,0 -2.256,-1.274 -2.314,-2.358 H 2.329 C 2.314,-1.304 1.611,0 0,0 m -3.472,-2.798 c 0,2.051 1.465,3.706 3.487,3.706 2.138,0 3.398,-1.67 3.398,-3.794 v -0.278 h -5.727 c 0.087,-1.333 1.025,-2.446 2.548,-2.446 0.806,0 1.626,0.322 2.183,0.893 L 2.944,-5.435 C 2.241,-6.138 1.289,-6.519 0.132,-6.519 c -2.095,0 -3.604,1.509 -3.604,3.721" /></g><g
           transform="translate(233.3501,26.6299)"
           id="g394"><path
             id="path396"
             style="fill:#f9fbfc;fill-opacity:1;fill-rule:nonzero;stroke:none"
             d="m 0,0 v 3.208 c -0.396,0.615 -1.245,1.143 -2.124,1.143 -1.421,0 -2.271,-1.172 -2.271,-2.74 0,-1.567 0.85,-2.724 2.271,-2.724 0.879,0 1.728,0.498 2.124,1.113 m 0,-1.919 v 1.055 c -0.527,-0.718 -1.392,-1.231 -2.388,-1.231 -1.845,0 -3.149,1.407 -3.149,3.706 0,2.256 1.289,3.721 3.149,3.721 0.952,0 1.817,-0.469 2.388,-1.245 v 3.765 h 1.099 v -9.771 z" /></g><g
           transform="translate(242.8999,25.5166)"
           id="g398"><path
             id="path400"
             style="fill:#f9fbfc;fill-opacity:1;fill-rule:nonzero;stroke:none"
             d="M 0,0 C 1.436,0 2.285,1.157 2.285,2.725 2.285,4.292 1.436,5.464 0,5.464 -0.864,5.464 -1.729,4.937 -2.109,4.321 V 1.113 C -1.729,0.498 -0.864,0 0,0 m -3.208,-0.806 v 9.771 h 1.099 V 5.2 c 0.571,0.777 1.421,1.245 2.387,1.245 1.846,0 3.15,-1.465 3.15,-3.72 0,-2.3 -1.304,-3.706 -3.15,-3.706 -0.996,0 -1.86,0.512 -2.387,1.23 v -1.055 z" /></g><g
           transform="translate(247.5283,22.9385)"
           id="g402"><path
             id="path404"
             style="fill:#f9fbfc;fill-opacity:1;fill-rule:nonzero;stroke:none"
             d="m 0,0 c 0.161,-0.073 0.425,-0.117 0.601,-0.117 0.483,0 0.805,0.161 1.055,0.747 l 0.469,1.069 -2.96,7.149 H 0.352 L 2.71,3.047 5.054,8.848 H 6.255 L 2.71,0.337 C 2.285,-0.688 1.567,-1.084 0.63,-1.099 c -0.234,0 -0.601,0.044 -0.805,0.103 z" /></g></g></g></g></svg>