<svg id="Layer_1" height="250" viewBox="0 0 128 128" width="250" xmlns="http://www.w3.org/2000/svg" data-name="Layer 1"><path d="m21.691 71.666a4.682 4.682 0 0 1 -4.477-3.029 4.482 4.482 0 0 1 .962-4.517 11.732 11.732 0 0 0 -2.444.094 1.75 1.75 0 0 1 -.465-3.469 11.955 11.955 0 0 1 7.328 1c3.936-.645 6.878 2.4 7.994 4.382a1.75 1.75 0 0 1 -3.044 1.727 6.738 6.738 0 0 0 -1.529-1.773c.008.038.016.077.024.115a4.346 4.346 0 0 1 -2.977 5.285 5.312 5.312 0 0 1 -1.372.185zm.242-6.051c-1.1.541-1.643 1.235-1.428 1.83a1.32 1.32 0 0 0 1.656.658c.517-.139.524-.832.447-1.22a2.632 2.632 0 0 0 -.675-1.268z" fill="#ef3f00"/><path d="m111.064 68.769a6.84 6.84 0 0 1 -6.189-3.792 28.018 28.018 0 0 0 -16.2-14.189v-10.374a12.869 12.869 0 0 0 -8.9 8.909h-24.718a27.946 27.946 0 0 0 -27.946 27.945 27.917 27.917 0 0 0 12.866 23.522l1.723 11.71h9.056v-3.034a4.263 4.263 0 0 1 4.255-4.251h24.789a2.262 2.262 0 0 1 2.3 2.244v5.041h9.056l1.725-10.55a27.952 27.952 0 0 0 14.719-22.184h3.424a1.472 1.472 0 0 0 1.472-1.472v-8.053a1.456 1.456 0 0 0 -1.432-1.472z" fill="#ef3f00"/><path d="m98.707 79.766h3.424a1.472 1.472 0 0 0 1.472-1.472v-8.053a1.456 1.456 0 0 0 -1.436-1.472 6.84 6.84 0 0 1 -6.189-3.792 28.018 28.018 0 0 0 -16.2-14.189v-1.466h-24.721a27.946 27.946 0 0 0 -27.946 27.946 27.916 27.916 0 0 0 12.866 23.522l1.723 11.71h.159v-3.034a4.263 4.263 0 0 1 4.255-4.251h33.686a2.262 2.262 0 0 1 2.3 2.244v5.041h.159l1.725-10.55a27.952 27.952 0 0 0 14.723-22.184z" fill="#ff6100"/><path d="m95.044 66.568a1.75 1.75 0 0 1 -1.75-1.75 1.587 1.587 0 1 0 -3.175 0 1.75 1.75 0 0 1 -3.5 0 5.087 5.087 0 1 1 10.175 0 1.75 1.75 0 0 1 -1.75 1.75z" fill="#e0eff4"/><path d="m111.378 72.161a1.122 1.122 0 0 0 1.122 1.122v-2.244a1.122 1.122 0 0 0 -1.122 1.122z" fill="#ff6100"/><circle cx="63.314" cy="44.553" fill="#fcad02" r="11.564"/><circle cx="44.175" cy="27.575" fill="#fcad02" r="7.575"/><circle cx="60.675" cy="19.75" fill="#fcad02" r="4.25"/><path d="m59.526 33.636a11.55 11.55 0 0 0 0 21.833 11.55 11.55 0 0 0 0-21.833z" fill="#fcca03"/><path d="m54.394 59.359a1.75 1.75 0 0 1 -.694-3.359 23.3 23.3 0 0 1 9-1.638 23.512 23.512 0 0 1 8.848 1.571 1.75 1.75 0 1 1 -1.355 3.227 19.985 19.985 0 0 0 -7.493-1.3 20.04 20.04 0 0 0 -7.612 1.349 1.739 1.739 0 0 1 -.694.15z" fill="#e0eff4"/><path d="m41.283 20.575a7.574 7.574 0 0 0 0 14 7.574 7.574 0 0 0 0-14z" fill="#fcca03"/><path d="m58.55 16.089a4.215 4.215 0 0 0 0 7.321 4.215 4.215 0 0 0 0-7.321z" fill="#fcca03"/><g fill="#5d0000"><path d="m112.5 110.75h-.625a1.75 1.75 0 0 0 0 3.5h.625a1.75 1.75 0 0 0 0-3.5z"/><path d="m113.295 67.941a3.134 3.134 0 0 0 -2.224-.923h-.043a5.109 5.109 0 0 1 -4.581-2.812 29.928 29.928 0 0 0 -16.024-14.647v-9.145a1.751 1.751 0 0 0 -2.223-1.685 14.558 14.558 0 0 0 -10.133 10.2 1.75 1.75 0 0 0 3.41.787 11.117 11.117 0 0 1 5.443-6.746v7.813a1.752 1.752 0 0 0 1.192 1.659 26.386 26.386 0 0 1 15.189 13.3 8.6 8.6 0 0 0 6.9 4.711 2.832 2.832 0 0 0 .55 3.964v3.593h-3.151a1.75 1.75 0 0 0 -1.743 1.6 26.1 26.1 0 0 1 -13.801 20.79 1.749 1.749 0 0 0 -.9 1.263l-1.486 9.083h-5.823v-3.292a3.937 3.937 0 0 0 -1.209-2.852 4.065 4.065 0 0 0 -2.859-1.143h-24.768a6.015 6.015 0 0 0 -6 6v1.284h-33.511a1.75 1.75 0 0 0 0 3.5h90a1.75 1.75 0 0 0 0-3.5h-12.288l1.256-7.679a29.579 29.579 0 0 0 14.7-21.556h1.865a3.225 3.225 0 0 0 3.222-3.222v-8.045a3.267 3.267 0 0 0 -.96-2.3zm-60.787 41.525a2.482 2.482 0 0 1 .737-1.766 2.512 2.512 0 0 1 1.811-.736h24.744a.571.571 0 0 1 .4.156.454.454 0 0 1 .144.338v3.292h-27.836z"/><path d="m90.119 64.818a1.587 1.587 0 1 1 3.175 0 1.75 1.75 0 0 0 3.5 0 5.087 5.087 0 1 0 -10.175 0 1.75 1.75 0 0 0 3.5 0z"/><path d="m15.732 64.214a11.732 11.732 0 0 1 2.444-.094 4.482 4.482 0 0 0 -.962 4.517 4.682 4.682 0 0 0 4.477 3.029 5.312 5.312 0 0 0 1.372-.182 4.346 4.346 0 0 0 2.977-5.284c-.008-.038-.016-.077-.024-.115a6.446 6.446 0 0 1 1.114 1.159 29.584 29.584 0 0 0 11.229 34.576l.652 4.424a1.75 1.75 0 0 0 1.729 1.5 1.774 1.774 0 0 0 .26-.024 1.75 1.75 0 0 0 1.476-1.986l-.766-5.2a1.752 1.752 0 0 0 -.786-1.218 26.192 26.192 0 0 1 10.915-48.045 13.4 13.4 0 0 0 3.7 4.069 16.656 16.656 0 0 0 -1.839.66 1.75 1.75 0 1 0 1.393 3.211 20.04 20.04 0 0 1 7.607-1.345 19.985 19.985 0 0 1 7.493 1.3 1.75 1.75 0 0 0 1.355-3.227c-.27-.114-.553-.219-.84-.321a13.313 13.313 0 0 0 -11.187-23.831 1.75 1.75 0 0 0 .995 3.355 9.8 9.8 0 1 1 -6.817 7.43 1.75 1.75 0 1 0 -3.429-.7 13.4 13.4 0 0 0 -.27 2.681 13.247 13.247 0 0 0 .453 3.385 29.845 29.845 0 0 0 -21.8 15.812 7.231 7.231 0 0 0 -6.059-2 11.955 11.955 0 0 0 -7.328-1 1.75 1.75 0 1 0 .465 3.469zm6.2 1.4a2.632 2.632 0 0 1 .675 1.269c.077.388.07 1.081-.447 1.22a1.32 1.32 0 0 1 -1.656-.658c-.214-.594.331-1.289 1.429-1.83z"/><path d="m53.427 38.311a1.75 1.75 0 0 0 2.468-.183q.129-.149.264-.293a1.75 1.75 0 1 0 -2.545-2.4q-.189.2-.37.41a1.75 1.75 0 0 0 .183 2.466z"/><path d="m44.175 36.9a9.325 9.325 0 1 0 -9.325-9.325 9.336 9.336 0 0 0 9.325 9.325zm0-15.15a5.825 5.825 0 1 1 -5.825 5.825 5.832 5.832 0 0 1 5.825-5.825z"/><path d="m60.675 25.75a6.007 6.007 0 0 0 6-6 1.75 1.75 0 0 0 -3.5 0 2.5 2.5 0 1 1 -2.5-2.5 1.75 1.75 0 0 0 0-3.5 6 6 0 0 0 0 12z"/></g></svg>