<?xml version="1.0" encoding="iso-8859-1"?>
<!-- Generator: Adobe Illustrator 19.0.0, SVG Export Plug-In . SVG Version: 6.00 Build 0)  -->
<svg version="1.1" id="Layer_1" xmlns="http://www.w3.org/2000/svg" xmlns:xlink="http://www.w3.org/1999/xlink" x="0px" y="0px"
	 viewBox="0 0 512 512" style="enable-background:new 0 0 512 512;" xml:space="preserve">
<g>
	<g>
		<path d="M256,56C132.8,56,32,128,32,216c0,9.6,8,16,16,16h416c9.6,0,16-6.4,16-16c0-1.6,0-1.6,0-3.2C478.4,124.8,377.6,56,256,56z
			 M65.6,200C78.4,136,158.4,88,256,88s179.2,49.6,190.4,112H65.6z"/>
	</g>
</g>
<g>
	<g>
		<path d="M496,248H16c-9.6,0-16,6.4-16,16c0,9.6,6.4,16,16,16h480c9.6,0,16-6.4,16-16C512,254.4,505.6,248,496,248z"/>
	</g>
</g>
<g>
	<g>
		<path d="M496,296H16c-9.6,0-16,6.4-16,16c0,9.6,6.4,16,16,16h480c9.6,0,16-6.4,16-16C512,302.4,505.6,296,496,296z"/>
	</g>
</g>
<g>
	<g>
		<path d="M496,344H16c-9.6,0-16,6.4-16,16c0,9.6,6.4,16,16,16h16v25.6c0,25.6,20.8,54.4,48,54.4h353.6c25.6,0,46.4-28.8,46.4-54.4
			V376h16c9.6,0,16-6.4,16-16C512,350.4,505.6,344,496,344z M448,401.6c0,9.6-9.6,22.4-14.4,22.4H80c-6.4,0-16-12.8-16-22.4V376h384
			V401.6z"/>
	</g>
</g>
<g>
</g>
<g>
</g>
<g>
</g>
<g>
</g>
<g>
</g>
<g>
</g>
<g>
</g>
<g>
</g>
<g>
</g>
<g>
</g>
<g>
</g>
<g>
</g>
<g>
</g>
<g>
</g>
<g>
</g>
</svg>
