<svg height="25pt" viewBox="0 0 512 512" width="25pt" xmlns="http://www.w3.org/2000/svg"><path d="m196 169.601562c-5.097656 0-10.5 0-15.902344.597657h-.898437c-98.398438 9.300781-179.199219 102.703125-179.199219 206.800781 0 120.902344 112.300781 135 196 135 83.101562 0 180-12.597656 193.5-111.898438 14.097656-116.402343-78.300781-230.5-193.5-230.5zm0 0" fill="#ff637b"/><path d="m389.5 400.101562c-13.5 99.300782-110.398438 111.898438-193.5 111.898438v-342.398438c115.199219 0 207.597656 114.097657 193.5 230.5zm0 0" fill="#e63950"/><path d="m300.097656 49.800781-30 91h-148.195312l-30-91c-1.804688-4.5-.902344-9.601562 1.796875-13.5 3-3.898437 7.5-6.300781 12.300781-6.300781h47.699219c6-17.402344 22.800781-30 42.300781-30s36 12.597656 42.300781 30h47.699219c4.800781 0 9.300781 2.402344 12.300781 6.300781 2.699219 3.898438 3.601563 9 1.796875 13.5zm0 0" fill="#ff637b"/><path d="m300.097656 49.800781-30 91h-74.097656v-140.800781c19.5 0 36 12.597656 42.300781 30h47.699219c4.800781 0 9.300781 2.402344 12.300781 6.300781 2.699219 3.898438 3.601563 9 1.796875 13.5zm0 0" fill="#e63950"/><path d="m240.699219 381.5c0 19.5-12.296875 35.699219-29.699219 42v13.5c0 8.402344-6.597656 15-15 15s-15-6.597656-15-15v-13.199219c-17.402344-6.300781-30.300781-22.800781-30.300781-42.300781 0-8.398438 6.898437-15 15-15 8.402343 0 15 6.601562 15 15 0 8.101562 6.898437 15 15 15h.300781c8.402344-.300781 14.699219-6.898438 14.699219-15 0-8.398438-6.296875-14.699219-14.699219-15h-.300781c-24.597657 0-45-20.402344-45-45 0-19.800781 12.902343-36.300781 30.300781-42.300781v-22.199219c0-8.402344 6.597656-15 15-15s15 6.597656 15 15v22.199219c17.402344 6.300781 29.699219 22.800781 29.699219 42.300781 0 8.101562-6.597657 15-15 15-8.101563 0-15-6.898438-15-15 0-8.398438-6.296875-14.699219-14.699219-15h-.300781c-8.101563 0-15 6.601562-15 15 0 8.101562 6.898437 15 15 15h.300781c24.902344.300781 44.699219 20.101562 44.699219 45zm0 0" fill="#ffda2d"/><path d="m512 302c0 16.5-13.5 30-30 30l-76 30-75-30c-16.5 0-30-13.5-30-30s13.5-30 30-30h151c16.5 0 30 13.5 30 30zm0 0" fill="#ffda2d"/><path d="m512 302c0 16.5-13.5 30-30 30l-76 30v-90h76c16.5 0 30 13.5 30 30zm0 0" fill="#fdbf00"/><path d="m512 362c0 16.5-13.5 30-30 30l-76 30-75-30c-16.5 0-30-13.5-30-30s13.5-30 30-30h151c16.5 0 30 13.5 30 30zm0 0" fill="#fdbf00"/><path d="m512 362c0 16.5-13.5 30-30 30l-76 30v-90h76c16.5 0 30 13.5 30 30zm0 0" fill="#ff9100"/><path d="m512 422c0 16.5-13.5 30-30 30l-76 30-75-30c-16.5 0-30-13.5-30-30s13.5-30 30-30h151c16.5 0 30 13.5 30 30zm0 0" fill="#ffda2d"/><path d="m512 422c0 16.5-13.5 30-30 30l-76 30v-90h76c16.5 0 30 13.5 30 30zm0 0" fill="#fdbf00"/><path d="m512 482c0 16.5-13.5 30-30 30h-151c-16.5 0-30-13.5-30-30s13.5-30 30-30h151c16.5 0 30 13.5 30 30zm0 0" fill="#fdbf00"/><path d="m512 482c0 16.5-13.5 30-30 30h-76v-60h76c16.5 0 30 13.5 30 30zm0 0" fill="#ff9100"/><path d="m301 151c0 16.5-13.5 30-30 30h-150c-16.5 0-30-13.5-30-30s13.5-30 30-30h150c16.5 0 30 13.5 30 30zm0 0" fill="#ffda2d"/><g fill="#fdbf00"><path d="m240.699219 381.5c0 19.5-12.296875 35.699219-29.699219 42v13.5c0 8.402344-6.597656 15-15 15v-55.5c8.402344-.300781 14.699219-6.898438 14.699219-15 0-8.398438-6.296875-14.699219-14.699219-15v-30c24.902344.300781 44.699219 20.101562 44.699219 45zm0 0"/><path d="m240.699219 321.5c0 8.101562-6.597657 15-15 15-8.101563 0-15-6.898438-15-15 0-8.398438-6.296875-14.699219-14.699219-15v-64.5c8.402344 0 15 6.597656 15 15v22.199219c17.402344 6.300781 29.699219 22.800781 29.699219 42.300781zm0 0"/><path d="m301 151c0 16.5-13.5 30-30 30h-75v-60h75c16.5 0 30 13.5 30 30zm0 0"/></g></svg>