<svg id="Capa_1" enable-background="new 0 0 512.05 512.05" height="512" viewBox="0 0 512.05 512.05" width="512" xmlns="http://www.w3.org/2000/svg"><path d="m337.015 456.33-4.29 7.68h-25.27c-5.6 13.59-18.46 35.11-45.95 45.89l-5.48 2.15-5.48-2.15c-27.49-10.78-40.35-32.3-45.95-45.89h-25.27l-4.29-7.68c-16.51-29.55 8.77-71.4 11.71-76.07l4.41-7.02h129.74l4.41 7.02c2.94 4.67 28.22 46.52 11.71 76.07z" fill="#ff9e01"/><path d="m325.305 380.26c2.94 4.67 28.22 46.52 11.71 76.07l-4.29 7.68h-25.27c-5.6 13.59-18.46 35.11-45.95 45.89l-5.48 2.15v-138.81h64.87z" fill="#f57e01"/><path d="m152.432 258.625-21.797-20.612-90.968 96.196v69.027h86.621l15.246-30h-.001v-103.086z" fill="#2f5995"/><path d="m381.415 238.013-21.797 20.612 10.899 11.525v103.086h-.001l15.231 30h86.636v-69.027z" fill="#183158"/><path d="m352.905 149.47v253.77h-193.76v-253.77c0-47.73 22.74-93.41 60.81-122.2l36.07-27.27 36.07 27.27c38.07 28.79 60.81 74.47 60.81 122.2z" fill="#fce4e3"/><path d="m352.905 149.47v253.77h-96.88v-403.24l36.07 27.27c38.07 28.79 60.81 74.47 60.81 122.2z" fill="#fcced2"/><path d="m179.717 191.383h-5.486c-26.439 0-47.949 21.51-47.949 47.95v163.903h101.385v-163.903c-.001-26.44-21.511-47.95-47.95-47.95z" fill="#ff7cb8"/><path d="m337.82 191.383h-5.486c-26.439 0-47.949 21.51-47.949 47.95v163.903h101.385v-163.903c-.001-26.44-21.511-47.95-47.95-47.95z" fill="#fa5e97"/><path d="m352.515 138.94h-192.98c3.07-43.85 25.16-85.01 60.42-111.67l36.07-27.27 36.07 27.27c35.26 26.66 57.35 67.82 60.42 111.67z" fill="#fa5e97"/><path d="m352.515 138.94h-96.49v-138.94l36.07 27.27c35.26 26.66 57.35 67.82 60.42 111.67z" fill="#d84f86"/></svg>