<svg id="coins" enable-background="new 0 0 300 300" height="512" viewBox="0 0 300 300" width="512" xmlns="http://www.w3.org/2000/svg"><circle cx="124.326" cy="118.5" fill="#efefd2" r="92"/><g fill="#4c241d"><path d="m46.326 78.5c-7.719 0-14-6.281-14-14s6.281-14 14-14 14 6.281 14 14-6.281 14-14 14zm0-20c-3.309 0-6 2.691-6 6s2.691 6 6 6 6-2.691 6-6-2.691-6-6-6z"/><path d="m214.326 106.5c-7.719 0-14-6.281-14-14s6.281-14 14-14 14 6.281 14 14-6.281 14-14 14zm0-20c-3.309 0-6 2.691-6 6s2.691 6 6 6 6-2.691 6-6-2.691-6-6-6z"/><circle cx="226.326" cy="44.5" r="4.529"/><circle cx="66.326" cy="32.5" r="4.529"/><circle cx="42.326" cy="196.5" r="4.529"/><path d="m248.979 135.848c-1.023 0-2.047-.391-2.828-1.172-1.562-1.562-1.562-4.094 0-5.656l14.695-14.695c1.562-1.562 4.094-1.562 5.656 0s1.562 4.094 0 5.656l-14.695 14.695c-.782.781-1.805 1.172-2.828 1.172z"/><path d="m263.674 135.848c-1.023 0-2.047-.391-2.828-1.172l-14.696-14.696c-1.562-1.562-1.562-4.094 0-5.656s4.094-1.562 5.656 0l14.695 14.695c1.562 1.562 1.562 4.094 0 5.656-.78.782-1.804 1.173-2.827 1.173z"/><path d="m140.979 47.848c-1.023 0-2.047-.391-2.828-1.172-1.562-1.562-1.562-4.094 0-5.656l14.695-14.695c1.562-1.562 4.094-1.562 5.656 0s1.562 4.094 0 5.656l-14.695 14.695c-.782.781-1.805 1.172-2.828 1.172z"/><path d="m155.674 47.848c-1.023 0-2.047-.391-2.828-1.172l-14.696-14.696c-1.562-1.562-1.562-4.094 0-5.656s4.094-1.562 5.656 0l14.695 14.695c1.562 1.562 1.562 4.094 0 5.656-.78.782-1.804 1.173-2.827 1.173z"/><path d="m52.979 247.848c-1.023 0-2.047-.391-2.828-1.172-1.562-1.562-1.562-4.094 0-5.656l14.695-14.695c1.562-1.562 4.094-1.562 5.656 0s1.562 4.094 0 5.656l-14.695 14.695c-.782.781-1.805 1.172-2.828 1.172z"/><path d="m67.674 247.848c-1.023 0-2.047-.391-2.828-1.172l-14.696-14.696c-1.562-1.562-1.562-4.094 0-5.656s4.094-1.562 5.656 0l14.695 14.695c1.562 1.562 1.562 4.094 0 5.656-.78.782-1.804 1.173-2.827 1.173z"/></g><path d="m116.326 170.677h124v78.923c0 11.735-27.758 21.248-62 21.248s-62-9.513-62-21.248z" fill="#ffec95"/><path d="m178.326 274.848c-31.996 0-66-8.848-66-25.25v-78.922c0-2.211 1.791-4 4-4h124c2.211 0 4 1.789 4 4v78.922c0 16.402-34.004 25.25-66 25.25zm-58-100.172v74.922c0 7.203 22.064 17.25 58 17.25 35.934 0 58-10.047 58-17.25v-74.922z" fill="#4c241d"/><ellipse cx="178.888" cy="170.677" fill="#ffce56" rx="61.438" ry="21.248"/><path d="m178.889 195.926c-31.723 0-65.438-8.848-65.438-25.25 0-16.398 33.715-25.246 65.438-25.246s65.438 8.848 65.438 25.246c-.001 16.402-33.716 25.25-65.438 25.25zm0-42.496c-35.586 0-57.438 10.043-57.438 17.246s21.852 17.25 57.438 17.25 57.438-10.047 57.438-17.25-21.852-17.246-57.438-17.246z" fill="#4c241d"/><path d="m178.889 221.668c-31.723 0-65.438-8.848-65.438-25.25 0-2.211 1.791-4 4-4s4 1.789 4 4c0 7.203 21.852 17.25 57.438 17.25s57.438-10.047 57.438-17.25c0-2.211 1.789-4 4-4s4 1.789 4 4c-.001 16.402-33.716 25.25-65.438 25.25z" fill="#4c241d"/><path d="m178.889 249.594c-31.723 0-65.438-8.848-65.438-25.25 0-2.211 1.791-4 4-4s4 1.789 4 4c0 7.203 21.852 17.25 57.438 17.25s57.438-10.047 57.438-17.25c0-2.211 1.789-4 4-4s4 1.789 4 4c-.001 16.402-33.716 25.25-65.438 25.25z" fill="#4c241d"/><circle cx="114.658" cy="139.108" fill="#ffce56" r="72.608"/><path d="m114.658 215.719c-42.242 0-76.609-34.367-76.609-76.609s34.367-76.61 76.609-76.61 76.609 34.367 76.609 76.609-34.367 76.61-76.609 76.61zm0-145.219c-37.832 0-68.609 30.777-68.609 68.609s30.777 68.609 68.609 68.609 68.609-30.777 68.609-68.609-30.777-68.609-68.609-68.609z" fill="#4c241d"/><circle cx="114.658" cy="139.108" fill="#ffce56" r="54.273"/><path d="m114.658 197.383c-32.133 0-58.273-26.141-58.273-58.273s26.141-58.273 58.273-58.273 58.273 26.141 58.273 58.273-26.14 58.273-58.273 58.273zm0-108.547c-27.721 0-50.273 22.551-50.273 50.273s22.553 50.273 50.273 50.273 50.273-22.551 50.273-50.273-22.552-50.273-50.273-50.273z" fill="#4c241d"/><path d="m116.326 165.535c-8.258 0-14.975-6.719-14.975-14.977v-1.715c0-2.211 1.791-4 4-4s4 1.789 4 4v1.715c0 3.848 3.129 6.977 6.975 6.977s6.975-3.129 6.975-6.977c0-2.766-1.607-5.336-4.098-6.547l-10.799-5.258c-4.285-2.086-7.053-6.512-7.053-11.277 0-6.625 5.389-12.012 12.012-12.012h5.926c6.623 0 12.012 5.387 12.012 12.012 0 2.211-1.791 4-4 4s-4-1.789-4-4-1.799-4.012-4.012-4.012h-5.926c-2.213 0-4.012 1.801-4.012 4.012 0 1.727 1.002 3.328 2.553 4.082l10.801 5.258c5.223 2.547 8.596 7.938 8.596 13.742 0 8.258-6.717 14.977-14.975 14.977z" fill="#4c241d"/><path d="m116.668 172.852c-2.209 0-4-1.789-4-4v-56.703c0-2.211 1.791-4 4-4s4 1.789 4 4v56.703c0 2.21-1.791 4-4 4z" fill="#4c241d"/></svg>